<?xml version="1.0" encoding="UTF-8" standalone="no"?>
<!-- Created with Inkscape (http://www.inkscape.org/) -->

<svg
   xmlns:dc="http://purl.org/dc/elements/1.1/"
   xmlns:cc="http://creativecommons.org/ns#"
   xmlns:rdf="http://www.w3.org/1999/02/22-rdf-syntax-ns#"
   xmlns:svg="http://www.w3.org/2000/svg"
   xmlns="http://www.w3.org/2000/svg"
   xmlns:sodipodi="http://sodipodi.sourceforge.net/DTD/sodipodi-0.dtd"
   xmlns:inkscape="http://www.inkscape.org/namespaces/inkscape"
   version="1.1"
   id="svg79604"
   xml:space="preserve"
   width="800"
   height="800"
   viewBox="0 0 800 800"
   sodipodi:docname="plastic-id-card-publicdomainvectors.org.svg"
   inkscape:version="0.92.4 (5da689c313, 2019-01-14)"><metadata
     id="metadata79610"><rdf:RDF><cc:Work
         rdf:about=""><dc:format>image/svg+xml</dc:format><dc:type
           rdf:resource="http://purl.org/dc/dcmitype/StillImage" /><dc:title></dc:title></cc:Work></rdf:RDF></metadata><defs
     id="defs79608"><clipPath
       clipPathUnits="userSpaceOnUse"
       id="clipPath79620"><path
         d="M 0,600 H 600 V 0 H 0 Z"
         id="path79618"
         inkscape:connector-curvature="0" /></clipPath></defs><sodipodi:namedview
     pagecolor="#ffffff"
     bordercolor="#666666"
     borderopacity="1"
     objecttolerance="10"
     gridtolerance="10"
     guidetolerance="10"
     inkscape:pageopacity="0"
     inkscape:pageshadow="2"
     inkscape:window-width="797"
     inkscape:window-height="480"
     id="namedview79606"
     showgrid="false"
     inkscape:zoom="0.295"
     inkscape:cx="400"
     inkscape:cy="400"
     inkscape:window-x="0"
     inkscape:window-y="0"
     inkscape:window-maximized="0"
     inkscape:current-layer="g79612" /><g
     id="g79612"
     inkscape:groupmode="layer"
     inkscape:label="plastic-id-card-publicdomainvectors.org"
     transform="matrix(1.3333333,0,0,-1.3333333,0,800)"><g
       id="g79614"><g
         id="g79616"
         clip-path="url(#clipPath79620)"><path
           d="m 188.493,453.828 h -17.629 c -0.73,0 -1.314,-0.586 -1.314,-1.314 v -5.868 c 0,-2.869 2.344,-5.211 5.211,-5.211 h 9.834 c 2.871,0 5.212,2.34 5.212,5.211 v 5.868 c 0,0.728 -0.587,1.314 -1.314,1.314 m -17.629,3.422 h 17.629 c 2.6,0 4.736,-2.135 4.736,-4.736 v -5.868 c 0,-4.744 -3.889,-8.634 -8.634,-8.634 h -9.834 c -4.749,0 -8.635,3.886 -8.635,8.634 v 5.868 c 0,2.601 2.138,4.736 4.738,4.736"
           style="fill:#e8e8e7;fill-opacity:1;fill-rule:evenodd;stroke:none"
           id="path79622"
           inkscape:connector-curvature="0" /><path
           d="m 189.425,455.103 c 1.43,0 2.589,-1.158 2.589,-2.589 v -5.868 c 0,-3.573 -2.913,-6.486 -6.487,-6.486 h -11.635 c -3.571,0 -6.487,2.915 -6.487,6.486 v 5.868 c 0,1.431 1.159,2.589 2.591,2.589 z m -19.429,0.873 c -1.899,0 -3.463,-1.566 -3.463,-3.462 v -5.868 c 0,-4.044 3.316,-7.359 7.359,-7.359 h 11.635 c 4.041,0 7.36,3.318 7.36,7.359 v 5.868 c 0,1.898 -1.566,3.462 -3.462,3.462 z"
           style="fill:#b2b1b0;fill-opacity:1;fill-rule:evenodd;stroke:none"
           id="path79624"
           inkscape:connector-curvature="0" /><path
           d="m 158.545,397.761 c -2.488,0 -4.522,-2.035 -4.522,-4.523 v -10e-4 c 0,-2.487 2.034,-4.522 4.522,-4.522 h 39.197 c 2.487,0 4.522,2.035 4.522,4.522 v 10e-4 c 0,2.488 -2.035,4.523 -4.522,4.523 z M 111.958,380.21 h 26.8 v 17.928 c 0,3.938 3.222,7.161 7.16,7.161 h 64.449 c 3.938,0 7.161,-3.223 7.161,-7.161 V 380.21 h 26.8 c 11.985,0 21.794,-9.807 21.794,-21.793 V 159.861 c 0,-11.985 -9.809,-21.792 -21.794,-21.792 h -132.37 c -11.986,0 -21.792,9.807 -21.792,21.792 v 198.556 c 0,11.986 9.806,21.793 21.792,21.793"
           style="fill:#8dd024;fill-opacity:1;fill-rule:evenodd;stroke:none"
           id="path79626"
           inkscape:connector-curvature="0" /><path
           d="m 158.545,397.761 c -2.488,0 -4.522,-2.035 -4.522,-4.523 v -10e-4 c 0,-2.487 2.034,-4.522 4.522,-4.522 h 39.197 c 2.487,0 4.522,2.035 4.522,4.522 v 10e-4 c 0,2.488 -2.035,4.523 -4.522,4.523 z M 111.958,380.21 h 26.8 v 17.928 c 0,3.938 3.222,7.161 7.16,7.161 h 64.449 c 3.938,0 7.161,-3.223 7.161,-7.161 V 380.21 h 26.8 c 1.654,0 3.263,-0.188 4.814,-0.541 C 226.667,282.959 167.16,204.848 90.166,168.821 v 189.596 c 0,11.986 9.806,21.793 21.792,21.793"
           style="fill:#a7d93a;fill-opacity:1;fill-rule:evenodd;stroke:none"
           id="path79628"
           inkscape:connector-curvature="0" /><path
           d="m 222.283,375.455 v -3.7 c 0,-6.563 -5.352,-11.916 -11.916,-11.916 h -64.449 c -6.562,0 -11.915,5.353 -11.915,11.916 v 3.7 h -22.045 c -9.36,0 -17.038,-7.677 -17.038,-17.038 V 159.861 c 0,-9.36 7.678,-17.038 17.038,-17.038 h 132.37 c 9.361,0 17.038,7.678 17.038,17.038 v 198.556 c 0,9.361 -7.677,17.038 -17.038,17.038 z"
           style="fill:#cce873;fill-opacity:1;fill-rule:evenodd;stroke:none"
           id="path79630"
           inkscape:connector-curvature="0" /><path
           d="m 222.283,375.455 v -3.7 c 0,-6.563 -5.352,-11.916 -11.916,-11.916 h -64.449 c -6.562,0 -11.915,5.353 -11.915,11.916 v 3.7 h -22.045 c -9.36,0 -17.038,-7.677 -17.038,-17.038 V 171.119 c 73.466,36.373 130.319,111.35 153.108,203.926 -1.192,0.267 -2.43,0.41 -3.7,0.41 z"
           style="fill:#e0f09a;fill-opacity:1;fill-rule:evenodd;stroke:none"
           id="path79632"
           inkscape:connector-curvature="0" /><path
           d="m 177.563,441.13 h 4.228 v 4.105 h -4.228 z"
           style="fill:#5f6062;fill-opacity:1;fill-rule:evenodd;stroke:none"
           id="path79634"
           inkscape:connector-curvature="0" /><path
           d="m 174.763,434.836 h 9.833 v 4.982 h -9.833 z"
           style="fill:#b2b1b0;fill-opacity:1;fill-rule:evenodd;stroke:none"
           id="path79636"
           inkscape:connector-curvature="0" /><path
           d="m 179.678,418.254 c -5.881,0 -10.647,-4.767 -10.647,-10.647 0,-5.881 4.766,-10.648 10.647,-10.648 5.882,0 10.648,4.767 10.648,10.648 0,5.88 -4.766,10.647 -10.648,10.647 m 13.056,0.78 c 2.622,-3.027 4.21,-6.978 4.21,-11.299 0,-9.536 -7.73,-17.267 -17.266,-17.267 -9.535,0 -17.266,7.731 -17.266,17.267 0,4.321 1.588,8.272 4.21,11.299 3.527,4.07 5.254,8.702 5.254,14.088 v 1.088 c 0,1.407 1.151,2.559 2.559,2.559 h 10.486 c 1.409,0 2.559,-1.152 2.559,-2.559 v -1.088 c 0,-5.386 1.727,-10.018 5.254,-14.088"
           style="fill:#cdcccb;fill-opacity:1;fill-rule:evenodd;stroke:none"
           id="path79638"
           inkscape:connector-curvature="0" /><path
           d="m 164.544,416.054 c 0.588,1.068 1.287,2.066 2.078,2.98 3.527,4.07 5.254,8.702 5.254,14.088 v 1.088 c 0,1.407 1.151,2.559 2.559,2.559 h 0.328 c -1.068,-0.548 -2.022,-1.039 -2.117,-3.35 -0.368,-9.065 -3.595,-12.071 -8.102,-17.365"
           style="fill:#edeeed;fill-opacity:1;fill-rule:evenodd;stroke:none"
           id="path79640"
           inkscape:connector-curvature="0" /><path
           d="m 185.16,416.736 c 13.271,-7.357 2.808,-26.49 -10.542,-18.5 1.506,-0.815 3.229,-1.277 5.06,-1.277 5.882,0 10.648,4.767 10.648,10.648 0,3.875 -2.071,7.266 -5.166,9.129"
           style="fill:#e8e8e7;fill-opacity:1;fill-rule:evenodd;stroke:none"
           id="path79642"
           inkscape:connector-curvature="0" /><path
           d="m 149.516,397.761 h 28.626 v 7.538 h -28.626 z"
           style="fill:#8dd024;fill-opacity:1;fill-rule:evenodd;stroke:none"
           id="path79644"
           inkscape:connector-curvature="0" /><path
           d="m 174.763,439.818 h 9.833 v 3.026 h -9.833 z"
           style="fill:#b2b1b0;fill-opacity:1;fill-rule:evenodd;stroke:none"
           id="path79646"
           inkscape:connector-curvature="0" /><path
           d="m 174.763,439.818 h 9.833 v 0.188 h -9.833 z"
           style="fill:#979898;fill-opacity:1;fill-rule:evenodd;stroke:none"
           id="path79648"
           inkscape:connector-curvature="0" /><path
           d="m 174.763,439.629 h 9.833 v 0.189 h -9.833 z"
           style="fill:#c9c9c7;fill-opacity:1;fill-rule:evenodd;stroke:none"
           id="path79650"
           inkscape:connector-curvature="0" /><path
           d="m 170.502,451.851 h 18.352 v 14.729 h -18.352 z"
           style="fill:#7e161b;fill-opacity:1;fill-rule:evenodd;stroke:none"
           id="path79652"
           inkscape:connector-curvature="0" /><path
           d="m 275.951,563.83 c 7.332,-5.067 13.674,-13.031 19.266,-23.307 41.697,-76.59 37.164,-335.97 133.169,-336.018 62.146,-0.031 80.445,97.036 80.467,143.703 0.03,63.2 -21.313,133.467 -71.788,182.219 -42.843,41.383 -105.553,51.502 -161.114,33.403 M 170.587,466.579 c -0.041,52.94 42.209,92.028 88.323,110.41 64.281,25.623 140.079,15.524 190.777,-33.444 54.383,-52.528 77.379,-127.8 77.346,-195.337 -0.028,-58.58 -23.734,-161.92 -98.647,-161.885 -118.316,0.06 -104.259,263.062 -149.138,345.502 -9.45,17.359 -21.916,24.569 -39.995,14.841 -27.831,-17.718 -50.512,-45.622 -50.484,-80.087 z"
           style="fill:#bf1e24;fill-opacity:1;fill-rule:evenodd;stroke:none"
           id="path79654"
           inkscape:connector-curvature="0" /><path
           d="m 229.543,561.985 c 9.333,5.949 19.259,10.973 29.367,15.004 64.281,25.623 140.079,15.524 190.777,-33.444 54.383,-52.528 77.379,-127.8 77.346,-195.337 -0.013,-30.294 -6.364,-72.559 -22.85,-106.308 l -3.417,-6.046 -9.301,-13.952 -9.411,-9.106 -19.587,-13.092 -26.05,-8.64 -33.805,7.968 2.165,11.513 c 7.128,-3.896 14.955,-6.037 23.609,-6.04 62.146,-0.031 80.445,97.036 80.467,143.703 0.03,63.2 -21.313,133.467 -71.788,182.219 -42.843,41.383 -105.553,51.502 -161.114,33.403 l -15.078,3.92 -12.184,1.99 -11.963,-4.164 -7.184,-3.594 z"
           style="fill:#e42225;fill-opacity:1;fill-rule:evenodd;stroke:none"
           id="path79656"
           inkscape:connector-curvature="0" /><path
           d="m 225.847,559.559 c 2.44,1.648 4.927,3.232 7.453,4.75 12.493,6.858 28.619,10.357 42.651,-0.479 7.332,-5.067 13.674,-13.031 19.266,-23.307 41.697,-76.59 37.164,-335.97 133.169,-336.018 32.639,-8.989 57.311,5.204 75.797,37.395 -15.396,-31.507 -39.625,-55.594 -75.797,-55.577 -89.888,0.044 -103.375,151.852 -124.346,260.953 l 0.007,-0.009 -0.038,0.169 c -1.024,5.322 -2.063,10.553 -3.132,15.649 -6.528,35.915 -8.086,64.904 -29.199,92.774 -12.765,16.851 -31.11,12.58 -45.831,3.7"
           style="fill:#82171b;fill-opacity:1;fill-rule:evenodd;stroke:none"
           id="path79658"
           inkscape:connector-curvature="0" /><path
           d="m 137.234,233.072 6.728,35.647 5.166,3.483 16.869,7.449 3.144,4.729 4.945,-35.298 2.437,27.756 -2.542,3.295 -2.935,-3.914 1.819,5.1 -3.385,4.589 c 0.258,1.525 0.516,3.05 0.775,4.574 -1.938,2.868 -3.875,5.737 -5.815,8.606 -4.528,2.327 -4.257,7.832 -1.084,6.281 -6.333,28.999 33.394,29.065 26.675,1.309 4.661,0.93 3.813,-5.936 0.85,-7.357 -1.395,-2.842 -2.791,-5.686 -4.187,-8.53 0.041,-1.82 0.08,-3.64 0.119,-5.46 l -3.785,-4.129 0.704,-5.138 -2.276,3.757 -1.69,-2.942 5.843,-28.42 1.884,35.937 2.732,-3.913 16.674,-8.411 4.878,-3.94 6.492,-35.06 h 4.438 v 103.77 H 133.58 v -103.77 z m -8.818,109.417 h 99.456 V 227.426 h -99.456 z"
           style="fill:#609d30;fill-opacity:1;fill-rule:evenodd;stroke:none"
           id="path79660"
           inkscape:connector-curvature="0" /><path
           d="m 128.416,342.489 h 99.456 v -26.58 c -1.663,-3.744 -3.385,-7.444 -5.165,-11.097 v 32.03 H 133.58 v -103.77 h 3.654 l 6.728,35.647 5.166,3.483 16.869,7.449 3.144,4.729 4.945,-35.298 2.437,27.756 -2.542,3.295 -2.935,-3.914 1.819,5.1 -3.385,4.589 c 0.258,1.525 0.516,3.05 0.775,4.574 -1.938,2.868 -3.875,5.737 -5.815,8.606 -4.528,2.327 -4.257,7.832 -1.084,6.281 -6.333,28.999 33.394,29.065 26.675,1.309 4.661,0.93 3.813,-5.936 0.85,-7.357 -1.395,-2.842 -2.791,-5.686 -4.187,-8.53 0.041,-1.82 0.08,-3.64 0.119,-5.46 l -3.785,-4.129 0.704,-5.138 -2.276,3.757 -1.69,-2.942 5.843,-28.42 1.884,35.937 2.732,-3.913 L 205,273.03 c -10.466,-16.546 -22.25,-31.821 -35.161,-45.604 h -41.423 z"
           style="fill:#70b32e;fill-opacity:1;fill-rule:evenodd;stroke:none"
           id="path79662"
           inkscape:connector-curvature="0" /><path
           d="m 124.388,189.696 h 106.729 v -3.379 H 124.388 Z m 0,-12.284 h 106.729 v -3.379 H 124.388 Z m -0.001,36.856 h 106.728 v -3.382 H 124.387 Z m 0,-49.139 h 106.728 v -3.382 H 124.387 Z m 0.001,36.853 h 106.729 v -3.381 H 124.388 Z"
           style="fill:#8dd024;fill-opacity:1;fill-rule:evenodd;stroke:none"
           id="path79664"
           inkscape:connector-curvature="0" /><path
           d="m 299.459,83.514 c 105.597,0 191.722,8.026 191.722,17.868 0,9.842 -86.125,17.869 -191.722,17.869 -105.596,0 -191.722,-8.027 -191.722,-17.869 0,-9.842 86.126,-17.868 191.722,-17.868"
           style="fill:#e8e8e7;fill-opacity:1;fill-rule:evenodd;stroke:none"
           id="path79666"
           inkscape:connector-curvature="0" /></g></g></g></svg>